<svg width="8" height="10" viewBox="0 0 8 10" fill="none" xmlns="http://www.w3.org/2000/svg">
<path opacity="0.3" d="M3.82947 0.771822C4.08244 0.612187 4.41004 0.658593 4.6333 0.744429C4.64995 0.75083 4.66383 0.759413 4.67647 0.769674C4.83125 0.895248 5.22257 1.10471 5.69338 1.29198C6.16311 1.47882 6.70348 1.64013 7.15415 1.67373C7.25004 1.68088 7.3303 1.77358 7.29463 1.87609C7.18338 2.19577 6.91423 2.57423 6.42327 2.77574C5.94584 2.9717 5.26644 2.99719 4.33166 2.65094L4.51952 6.87558C4.63982 7.18883 4.67998 7.53074 4.62067 7.87656C4.43009 8.98776 3.28469 9.71862 2.06235 9.50897C0.840004 9.29933 0.0035934 8.22858 0.194172 7.11738C0.384751 6.00619 1.53015 5.27533 2.7525 5.48497C3.09489 5.5437 3.40701 5.66999 3.67476 5.84581L3.50286 1.97998L3.50107 1.96597C3.41553 1.29514 3.57129 0.93475 3.82947 0.771822Z" fill="white"/>
</svg>
