<svg width="17" height="11" viewBox="0 0 17 11" fill="none" xmlns="http://www.w3.org/2000/svg">
<path opacity="0.6" d="M14.4922 4.00322C14.8496 2.895 14.3011 1.92211 13.427 1.76685C12.1642 1.54254 10.8399 1.52414 9.79515 1.60006C9.14772 1.64717 8.58011 2.12249 8.32942 2.85192L6.5558 8.01369C6.38588 9.06498 5.26953 10.0002 3.79963 10.2272C2.08229 10.4921 0.533359 9.69026 0.339804 8.43601C0.146054 7.18161 1.38098 5.94998 3.09846 5.68485C4.05958 5.53653 4.96788 5.72228 5.61535 6.13455L6.91075 2.3645C7.3156 1.18685 8.32263 0.203344 9.68652 0.104093C10.8248 0.0213659 12.2772 0.0393341 13.6893 0.289999C15.7202 0.650605 16.4681 2.76372 15.9199 4.46355L14.5546 8.69585C14.3344 9.70764 13.2416 10.5934 11.8168 10.8132C10.0994 11.0782 8.55049 10.2763 8.35694 9.02207C8.16319 7.76767 9.39812 6.53605 11.1156 6.27091C12.0699 6.12357 12.9721 6.30567 13.6187 6.71178L14.4922 4.00322Z" fill="white"/>
</svg>
